name C:\Users\u0101727\Documents\MyRepositories\upper-imu-dc\OpenSim\subject0\MA\ResultsMA\grid_4nodes_9dim\angles_21.mot
datacolumns 10
datarows 56
range 2100.01000000 2100.56000000
endheader 
time	clav_prot	clav_elev	scapula_abduction	scapula_elevation	scapula_upward_rot	scapula_winging	plane_elv	shoulder_elv	axial_rot	
       2100.01000000	        -50.00000000	        -10.00000000	        -21.66666667	         -3.33333333	          0.00000000	        -10.00000000	         90.00000000	        -10.00000000	         90.00000000	
       2100.02000000	        -38.33333333	        -10.00000000	        -21.66666667	         -3.33333333	          0.00000000	        -10.00000000	         90.00000000	        -10.00000000	         90.00000000	
       2100.03000000	        -26.66666667	        -10.00000000	        -21.66666667	         -3.33333333	          0.00000000	        -10.00000000	         90.00000000	        -10.00000000	         90.00000000	
       2100.04000000	        -15.00000000	        -10.00000000	        -21.66666667	         -3.33333333	          0.00000000	        -10.00000000	         90.00000000	        -10.00000000	         90.00000000	
       2100.05000000	        -50.00000000	          0.00000000	        -21.66666667	         -3.33333333	          0.00000000	        -10.00000000	         90.00000000	        -10.00000000	         90.00000000	
       2100.06000000	        -38.33333333	          0.00000000	        -21.66666667	         -3.33333333	          0.00000000	        -10.00000000	         90.00000000	        -10.00000000	         90.00000000	
       2100.07000000	        -26.66666667	          0.00000000	        -21.66666667	         -3.33333333	          0.00000000	        -10.00000000	         90.00000000	        -10.00000000	         90.00000000	
       2100.08000000	        -15.00000000	          0.00000000	        -21.66666667	         -3.33333333	          0.00000000	        -10.00000000	         90.00000000	        -10.00000000	         90.00000000	
       2100.09000000	        -50.00000000	         10.00000000	        -21.66666667	         -3.33333333	          0.00000000	        -10.00000000	         90.00000000	        -10.00000000	         90.00000000	
       2100.10000000	        -38.33333333	         10.00000000	        -21.66666667	         -3.33333333	          0.00000000	        -10.00000000	         90.00000000	        -10.00000000	         90.00000000	
       2100.11000000	        -26.66666667	         10.00000000	        -21.66666667	         -3.33333333	          0.00000000	        -10.00000000	         90.00000000	        -10.00000000	         90.00000000	
       2100.12000000	        -15.00000000	         10.00000000	        -21.66666667	         -3.33333333	          0.00000000	        -10.00000000	         90.00000000	        -10.00000000	         90.00000000	
       2100.13000000	        -50.00000000	         20.00000000	        -21.66666667	         -3.33333333	          0.00000000	        -10.00000000	         90.00000000	        -10.00000000	         90.00000000	
       2100.14000000	        -38.33333333	         20.00000000	        -21.66666667	         -3.33333333	          0.00000000	        -10.00000000	         90.00000000	        -10.00000000	         90.00000000	
       2100.15000000	        -26.66666667	         20.00000000	        -21.66666667	         -3.33333333	          0.00000000	        -10.00000000	         90.00000000	        -10.00000000	         90.00000000	
       2100.16000000	        -15.00000000	         20.00000000	        -21.66666667	         -3.33333333	          0.00000000	        -10.00000000	         90.00000000	        -10.00000000	         90.00000000	
       2100.17000000	        -50.00000000	        -10.00000000	         -3.33333333	         -3.33333333	          0.00000000	        -10.00000000	         90.00000000	        -10.00000000	         90.00000000	
       2100.18000000	        -38.33333333	        -10.00000000	         -3.33333333	         -3.33333333	          0.00000000	        -10.00000000	         90.00000000	        -10.00000000	         90.00000000	
       2100.19000000	        -26.66666667	        -10.00000000	         -3.33333333	         -3.33333333	          0.00000000	        -10.00000000	         90.00000000	        -10.00000000	         90.00000000	
       2100.20000000	        -15.00000000	        -10.00000000	         -3.33333333	         -3.33333333	          0.00000000	        -10.00000000	         90.00000000	        -10.00000000	         90.00000000	
       2100.21000000	        -50.00000000	          0.00000000	         -3.33333333	         -3.33333333	          0.00000000	        -10.00000000	         90.00000000	        -10.00000000	         90.00000000	
       2100.22000000	        -38.33333333	          0.00000000	         -3.33333333	         -3.33333333	          0.00000000	        -10.00000000	         90.00000000	        -10.00000000	         90.00000000	
       2100.23000000	        -26.66666667	          0.00000000	         -3.33333333	         -3.33333333	          0.00000000	        -10.00000000	         90.00000000	        -10.00000000	         90.00000000	
       2100.24000000	        -15.00000000	          0.00000000	         -3.33333333	         -3.33333333	          0.00000000	        -10.00000000	         90.00000000	        -10.00000000	         90.00000000	
       2100.25000000	        -50.00000000	         10.00000000	         -3.33333333	         -3.33333333	          0.00000000	        -10.00000000	         90.00000000	        -10.00000000	         90.00000000	
       2100.26000000	        -38.33333333	         10.00000000	         -3.33333333	         -3.33333333	          0.00000000	        -10.00000000	         90.00000000	        -10.00000000	         90.00000000	
       2100.27000000	        -26.66666667	         10.00000000	         -3.33333333	         -3.33333333	          0.00000000	        -10.00000000	         90.00000000	        -10.00000000	         90.00000000	
       2100.28000000	        -15.00000000	         10.00000000	         -3.33333333	         -3.33333333	          0.00000000	        -10.00000000	         90.00000000	        -10.00000000	         90.00000000	
       2100.29000000	        -50.00000000	         20.00000000	         -3.33333333	         -3.33333333	          0.00000000	        -10.00000000	         90.00000000	        -10.00000000	         90.00000000	
       2100.30000000	        -38.33333333	         20.00000000	         -3.33333333	         -3.33333333	          0.00000000	        -10.00000000	         90.00000000	        -10.00000000	         90.00000000	
       2100.31000000	        -26.66666667	         20.00000000	         -3.33333333	         -3.33333333	          0.00000000	        -10.00000000	         90.00000000	        -10.00000000	         90.00000000	
       2100.32000000	        -15.00000000	         20.00000000	         -3.33333333	         -3.33333333	          0.00000000	        -10.00000000	         90.00000000	        -10.00000000	         90.00000000	
       2100.33000000	        -50.00000000	        -10.00000000	         15.00000000	         -3.33333333	          0.00000000	        -10.00000000	         90.00000000	        -10.00000000	         90.00000000	
       2100.34000000	        -38.33333333	        -10.00000000	         15.00000000	         -3.33333333	          0.00000000	        -10.00000000	         90.00000000	        -10.00000000	         90.00000000	
       2100.35000000	        -26.66666667	        -10.00000000	         15.00000000	         -3.33333333	          0.00000000	        -10.00000000	         90.00000000	        -10.00000000	         90.00000000	
       2100.36000000	        -15.00000000	        -10.00000000	         15.00000000	         -3.33333333	          0.00000000	        -10.00000000	         90.00000000	        -10.00000000	         90.00000000	
       2100.37000000	        -50.00000000	          0.00000000	         15.00000000	         -3.33333333	          0.00000000	        -10.00000000	         90.00000000	        -10.00000000	         90.00000000	
       2100.38000000	        -38.33333333	          0.00000000	         15.00000000	         -3.33333333	          0.00000000	        -10.00000000	         90.00000000	        -10.00000000	         90.00000000	
       2100.39000000	        -26.66666667	          0.00000000	         15.00000000	         -3.33333333	          0.00000000	        -10.00000000	         90.00000000	        -10.00000000	         90.00000000	
       2100.40000000	        -15.00000000	          0.00000000	         15.00000000	         -3.33333333	          0.00000000	        -10.00000000	         90.00000000	        -10.00000000	         90.00000000	
       2100.41000000	        -50.00000000	         10.00000000	         15.00000000	         -3.33333333	          0.00000000	        -10.00000000	         90.00000000	        -10.00000000	         90.00000000	
       2100.42000000	        -38.33333333	         10.00000000	         15.00000000	         -3.33333333	          0.00000000	        -10.00000000	         90.00000000	        -10.00000000	         90.00000000	
       2100.43000000	        -26.66666667	         10.00000000	         15.00000000	         -3.33333333	          0.00000000	        -10.00000000	         90.00000000	        -10.00000000	         90.00000000	
       2100.44000000	        -15.00000000	         10.00000000	         15.00000000	         -3.33333333	          0.00000000	        -10.00000000	         90.00000000	        -10.00000000	         90.00000000	
       2100.45000000	        -50.00000000	         20.00000000	         15.00000000	         -3.33333333	          0.00000000	        -10.00000000	         90.00000000	        -10.00000000	         90.00000000	
       2100.46000000	        -38.33333333	         20.00000000	         15.00000000	         -3.33333333	          0.00000000	        -10.00000000	         90.00000000	        -10.00000000	         90.00000000	
       2100.47000000	        -26.66666667	         20.00000000	         15.00000000	         -3.33333333	          0.00000000	        -10.00000000	         90.00000000	        -10.00000000	         90.00000000	
       2100.48000000	        -15.00000000	         20.00000000	         15.00000000	         -3.33333333	          0.00000000	        -10.00000000	         90.00000000	        -10.00000000	         90.00000000	
       2100.49000000	        -50.00000000	        -10.00000000	        -40.00000000	          3.33333333	          0.00000000	        -10.00000000	         90.00000000	        -10.00000000	         90.00000000	
       2100.50000000	        -38.33333333	        -10.00000000	        -40.00000000	          3.33333333	          0.00000000	        -10.00000000	         90.00000000	        -10.00000000	         90.00000000	
       2100.51000000	        -26.66666667	        -10.00000000	        -40.00000000	          3.33333333	          0.00000000	        -10.00000000	         90.00000000	        -10.00000000	         90.00000000	
       2100.52000000	        -15.00000000	        -10.00000000	        -40.00000000	          3.33333333	          0.00000000	        -10.00000000	         90.00000000	        -10.00000000	         90.00000000	
       2100.53000000	        -50.00000000	          0.00000000	        -40.00000000	          3.33333333	          0.00000000	        -10.00000000	         90.00000000	        -10.00000000	         90.00000000	
       2100.54000000	        -38.33333333	          0.00000000	        -40.00000000	          3.33333333	          0.00000000	        -10.00000000	         90.00000000	        -10.00000000	         90.00000000	
       2100.55000000	        -26.66666667	          0.00000000	        -40.00000000	          3.33333333	          0.00000000	        -10.00000000	         90.00000000	        -10.00000000	         90.00000000	
       2100.56000000	        -15.00000000	          0.00000000	        -40.00000000	          3.33333333	          0.00000000	        -10.00000000	         90.00000000	        -10.00000000	         90.00000000	
